<svg width="100" height="100" viewBox="0 0 100 100" fill="none" xmlns="http://www.w3.org/2000/svg">
  <defs>
    <linearGradient id="bg-gradient" x1="0" y1="0" x2="100" y2="100">
      <stop offset="0%" stop-color="#6a11cb" />
      <stop offset="100%" stop-color="#2575fc" />
    </linearGradient>
  </defs>
  <rect width="100" height="100" rx="24" fill="url(#bg-gradient)"/>

  <g transform="translate(34, 12) scale(0.9)">
    <path fill="#FFFFFF" d="M 12 0 C 14.33 0 16.53 0.99 18 2.6 L 23.4 8 C 24.99 9.59 26.09 11.97 25.92 14.56 L 24 44 L 22 75 L 12 85 L 2 75 L 0 44 L -1.92 14.56 C -2.09 11.97 -0.99 9.59 0.6 8 L 6 2.6 C 7.47 0.99 9.67 0 12 0 Z M 24 15 C 32.28 15 39 21.72 39 30 C 39 36.69 34.61 42.35 28.59 44.32 C 35.51 46.03 40.64 52.31 40.64 59.83 C 40.64 68.67 33.48 75.83 24.64 75.83 L 22 75 L 24 44 L 25.92 14.56 C 25.39 14.71 24.74 14.83 24 15 Z M 24.64 68.83 C 29.61 68.83 33.64 64.8 33.64 59.83 C 33.64 54.86 29.61 50.83 24.64 50.83 L 23.6 50.83 L 24.4 68.25 C 24.47 68.44 24.55 68.63 24.64 68.83 Z M 23 22 C 18.58 22 15 25.58 15 30 C 15 34.42 18.58 38 23 38 C 27.42 38 31 34.42 31 30 C 31 25.58 27.42 22 23 22 Z"/>
    <rect x="11" y="55" width="2" height="20" rx="1" fill="#6a11cb" fill-opacity="0.5"/>
  </g>
</svg>